<svg xmlns="http://www.w3.org/2000/svg" width="1440" height="900" viewBox="0 0 1440 900" role="img" aria-labelledby="title desc">
  <title id="title">Jornada de aprendizagem em Inteligencia Artificial Aplicada</title>
  <desc id="desc">Infografico com sete blocos da disciplina e os principais momentos avaliativos do semestre.</desc>
  <defs>
    <linearGradient id="bg" x1="0" x2="1" y1="0" y2="1">
      <stop offset="0" stop-color="#f7fbff"/>
      <stop offset="1" stop-color="#eef5f3"/>
    </linearGradient>
    <linearGradient id="primary" x1="0" x2="1" y1="0" y2="0">
      <stop offset="0" stop-color="#315efb"/>
      <stop offset=".55" stop-color="#7c67e8"/>
      <stop offset="1" stop-color="#16a5a3"/>
    </linearGradient>
    <filter id="shadow" x="-20%" y="-20%" width="140%" height="140%">
      <feDropShadow dx="0" dy="16" stdDeviation="18" flood-color="#1d3661" flood-opacity=".14"/>
    </filter>
  </defs>

  <rect width="1440" height="900" rx="42" fill="url(#bg)"/>
  <path d="M132 184h1176" fill="none" stroke="#d7e2ef" stroke-width="3"/>
  <path d="M132 184h1176" fill="none" stroke="url(#primary)" stroke-width="9" stroke-linecap="round" stroke-dasharray="103 75"/>

  <text x="120" y="95" fill="#162033" font-family="Inter, Segoe UI, Arial, sans-serif" font-size="42" font-weight="800">Jornada de aprendizagem</text>
  <text x="120" y="135" fill="#5d6b82" font-family="Inter, Segoe UI, Arial, sans-serif" font-size="23">Inteligencia Artificial Aplicada - 2026/2</text>

  <g font-family="Inter, Segoe UI, Arial, sans-serif" filter="url(#shadow)">
    <g transform="translate(86 230)">
      <rect width="174" height="250" rx="20" fill="#ffffff" stroke="#dce4ef"/>
      <circle cx="42" cy="44" r="22" fill="#315efb"/>
      <text x="42" y="52" text-anchor="middle" fill="#ffffff" font-size="18" font-weight="850">01</text>
      <text x="24" y="98" fill="#162033" font-size="23" font-weight="800">Problemas</text>
      <text x="24" y="132" fill="#5d6b82" font-size="16">formular,</text>
      <text x="24" y="157" fill="#5d6b82" font-size="16">delimitar e</text>
      <text x="24" y="182" fill="#5d6b82" font-size="16">representar</text>
    </g>
    <g transform="translate(282 230)">
      <rect width="174" height="250" rx="20" fill="#ffffff" stroke="#dce4ef"/>
      <circle cx="42" cy="44" r="22" fill="#4660f7"/>
      <text x="42" y="52" text-anchor="middle" fill="#ffffff" font-size="18" font-weight="850">02</text>
      <text x="24" y="98" fill="#162033" font-size="23" font-weight="800">Agentes</text>
      <text x="24" y="132" fill="#5d6b82" font-size="16">ambiente,</text>
      <text x="24" y="157" fill="#5d6b82" font-size="16">percepcao e</text>
      <text x="24" y="182" fill="#5d6b82" font-size="16">acao</text>
    </g>
    <g transform="translate(478 230)">
      <rect width="174" height="250" rx="20" fill="#ffffff" stroke="#dce4ef"/>
      <circle cx="42" cy="44" r="22" fill="#665fec"/>
      <text x="42" y="52" text-anchor="middle" fill="#ffffff" font-size="18" font-weight="850">03</text>
      <text x="24" y="98" fill="#162033" font-size="23" font-weight="800">Busca</text>
      <text x="24" y="132" fill="#5d6b82" font-size="16">estado, custo,</text>
      <text x="24" y="157" fill="#5d6b82" font-size="16">heuristicas e</text>
      <text x="24" y="182" fill="#5d6b82" font-size="16">decisao</text>
    </g>
    <g transform="translate(674 230)">
      <rect width="174" height="250" rx="20" fill="#ffffff" stroke="#dce4ef"/>
      <circle cx="42" cy="44" r="22" fill="#7c67e8"/>
      <text x="42" y="52" text-anchor="middle" fill="#ffffff" font-size="18" font-weight="850">04</text>
      <text x="24" y="98" fill="#162033" font-size="23" font-weight="800">Dados</text>
      <text x="24" y="132" fill="#5d6b82" font-size="16">preparar,</text>
      <text x="24" y="157" fill="#5d6b82" font-size="16">treinar e</text>
      <text x="24" y="182" fill="#5d6b82" font-size="16">comparar</text>
    </g>
    <g transform="translate(870 230)">
      <rect width="174" height="250" rx="20" fill="#ffffff" stroke="#dce4ef"/>
      <circle cx="42" cy="44" r="22" fill="#5c8bd1"/>
      <text x="42" y="52" text-anchor="middle" fill="#ffffff" font-size="18" font-weight="850">05</text>
      <text x="24" y="98" fill="#162033" font-size="23" font-weight="800">Modelos</text>
      <text x="24" y="132" fill="#5d6b82" font-size="16">aprendizado,</text>
      <text x="24" y="157" fill="#5d6b82" font-size="16">validacao e</text>
      <text x="24" y="182" fill="#5d6b82" font-size="16">metricas</text>
    </g>
    <g transform="translate(1066 230)">
      <rect width="174" height="250" rx="20" fill="#ffffff" stroke="#dce4ef"/>
      <circle cx="42" cy="44" r="22" fill="#2b9daf"/>
      <text x="42" y="52" text-anchor="middle" fill="#ffffff" font-size="18" font-weight="850">06</text>
      <text x="24" y="98" fill="#162033" font-size="23" font-weight="800">IA Gen</text>
      <text x="24" y="132" fill="#5d6b82" font-size="16">uso critico,</text>
      <text x="24" y="157" fill="#5d6b82" font-size="16">prompts e</text>
      <text x="24" y="182" fill="#5d6b82" font-size="16">auditoria</text>
    </g>
    <g transform="translate(1262 230)">
      <rect width="174" height="250" rx="20" fill="#ffffff" stroke="#dce4ef"/>
      <circle cx="42" cy="44" r="22" fill="#16a5a3"/>
      <text x="42" y="52" text-anchor="middle" fill="#ffffff" font-size="18" font-weight="850">07</text>
      <text x="24" y="98" fill="#162033" font-size="23" font-weight="800">Projeto</text>
      <text x="24" y="132" fill="#5d6b82" font-size="16">evidencias,</text>
      <text x="24" y="157" fill="#5d6b82" font-size="16">defesa e</text>
      <text x="24" y="182" fill="#5d6b82" font-size="16">entrega</text>
    </g>
  </g>

  <g font-family="Inter, Segoe UI, Arial, sans-serif">
    <rect x="120" y="570" width="1200" height="190" rx="28" fill="#111b32"/>
    <text x="160" y="632" fill="#ffffff" font-size="30" font-weight="800">Momentos avaliativos</text>
    <text x="160" y="673" fill="#c5cee0" font-size="20">A disciplina combina registros de processo, atividades praticas, exercicios e um trabalho geral defendido ao final.</text>
    <g transform="translate(160 704)">
      <rect width="212" height="36" rx="18" fill="#315efb"/>
      <text x="106" y="24" text-anchor="middle" fill="#ffffff" font-size="16" font-weight="800">Processo - 10%</text>
    </g>
    <g transform="translate(392 704)">
      <rect width="212" height="36" rx="18" fill="#7c67e8"/>
      <text x="106" y="24" text-anchor="middle" fill="#ffffff" font-size="16" font-weight="800">Atividades - 20%</text>
    </g>
    <g transform="translate(624 704)">
      <rect width="212" height="36" rx="18" fill="#16a5a3"/>
      <text x="106" y="24" text-anchor="middle" fill="#ffffff" font-size="16" font-weight="800">Exercicios - 30%</text>
    </g>
    <g transform="translate(856 704)">
      <rect width="250" height="36" rx="18" fill="#d6ad26"/>
      <text x="125" y="24" text-anchor="middle" fill="#111b32" font-size="16" font-weight="850">Trabalho geral - 40%</text>
    </g>
  </g>

  <text x="120" y="835" fill="#5d6b82" font-family="Inter, Segoe UI, Arial, sans-serif" font-size="18">Da formulacao do problema a validacao da solucao: aprender IA exige escolhas tecnicas justificadas por evidencias.</text>
</svg>
